<?xml version="1.0" encoding="utf-8"?>
<!-- Generator: Adobe Illustrator 16.0.0, SVG Export Plug-In . SVG Version: 6.00 Build 0)  -->
<!DOCTYPE svg PUBLIC "-//W3C//DTD SVG 1.1//EN" "http://www.w3.org/Graphics/SVG/1.1/DTD/svg11.dtd">
<svg version="1.1" id="Layer_1" xmlns="http://www.w3.org/2000/svg" xmlns:xlink="http://www.w3.org/1999/xlink" x="0px" y="0px"
	 width="595.28px" height="841.89px" viewBox="0 0 595.28 841.89" enable-background="new 0 0 595.28 841.89" xml:space="preserve">
<g>
	<path fill-rule="evenodd" clip-rule="evenodd" fill="#AE461D" d="M258.379,328.326c-1.252-0.479-1.293-0.244-2.611-1.684
		c-0.621-0.671-0.867-0.727-0.656-1.318c-0.96,0.111-0.93,0.193-1.811,0.724c0.159,0.505,0.389,0.455,0.677,1.035
		c0.016,0.018,0.025,0.06,0.036,0.079c0.01,0.021,0.027,0.074,0.037,0.091c0.01,0.024,0.022,0.067,0.037,0.087
		c0.004,0.019,0.021,0.062,0.039,0.095c0.529,0.953,1.627,1.353,2.38,2.039C257.058,329.214,258.041,328.847,258.379,328.326z"/>
	<path fill-rule="evenodd" clip-rule="evenodd" fill="#AE461D" d="M263.146,319.555c0.449,0.114,0.74,0.229,0.971,0.739
		c0.228,0.508-0.23-0.029,0.576,0.978l-0.159,0.635c0.591-0.246,1.061-0.875,1.487-1.357c-0.022-0.043-0.055-0.143-0.061-0.117
		c-0.009,0.028-0.052-0.095-0.059-0.113l-0.111-0.243c-0.017-0.039-0.037-0.078-0.057-0.119c-0.438-0.904-0.615-0.995-1.484-1.492
		C263.746,318.689,263.414,319.032,263.146,319.555z"/>
	<path fill-rule="evenodd" clip-rule="evenodd" fill="#984715" d="M255.023,321.298l-0.145-0.564
		c0.421-0.295,0.884-0.863,1.287-1.272l0.832-0.917l0.637-0.017l-0.045-1.75c-0.773,0.255-0.414,0.366-1.654,0.663
		c0.137,0.536,0.178,0.312,0.179,0.671c0.009,0.293-0.104,0.508-0.218,0.751c-1.109-0.214-0.238-1.192-1.432-1.119
		c-1.062,0.054-0.554,0.753-0.861,1.269c-0.385,0.65-0.235,0.244-0.771,1.373c0.199,0.142,0.364,0.209,0.416,0.233
		c0.025,0.011,0.134,0.053,0.175,0.069c0.096,0.039,0.201,0.081,0.308,0.121l0.357,0.145c0.039,0.013,0.084,0.036,0.122,0.053
		L255.023,321.298z"/>
	<path fill-rule="evenodd" clip-rule="evenodd" fill="#984715" d="M254.506,324.713c-0.041-0.488-0.059-0.974-0.059-1.451
		c0-0.08,0.01-0.634,0.025-0.673c0.25-0.766-0.321-0.354,0.522-0.522l-0.581-0.27c-0.146-0.057-0.494-0.163-0.645-0.204
		l-0.963-0.234c-0.282,0.343,0.326,0.099-0.666,0.723c0.016,1.658-0.103,2.27,0.465,3.197L254.506,324.713z"/>
	<path fill-rule="evenodd" clip-rule="evenodd" fill="#8B2D0D" d="M263.167,326.485l0.458,0.366
		c-1.094,1.057-0.516,0.551-1.618,1.23c-0.945,0.583-0.827,0.011-1.792,0.611l-0.139-0.531c-1.145,0.478-0.256,0.513-1.667,1.164
		c-0.216,0.101-0.192,0.098-0.31,0.179l-0.355,0.381c0.391,0.624,0.465,0.846,1.439,0.864c2.56,0.023,3.161-0.269,5.008-1.511
		c-0.054-0.898-0.64-1.481,0.525-1.908c0.633-0.234,0.433,0.11,0.896-0.335l0.467-1.08
		C264.657,326.004,264.315,326.25,263.167,326.485z"/>
	<path fill-rule="evenodd" clip-rule="evenodd" fill="#8B2D0D" d="M264.617,322.895c0.071,0.032,0.668-0.145,0.363,1.406
		c-0.162,0.877-0.341,0.377-0.133,1.103l2.234-0.401c-0.031-0.538-0.01-0.225,0.061-0.572c0.045-0.238,0.051-0.025,0.12-0.468
		c0.032-0.259,0.019-0.27,0.032-0.504c0.067-1.312-0.291-0.424-0.154-1.43c0.008-0.068,0.154-0.449,0.037-0.697l-0.289-0.366
		C266.402,321.711,265.094,322.066,264.617,322.895z"/>
	<path fill-rule="evenodd" clip-rule="evenodd" fill="#140000" d="M233.62,417.451c4.669-0.243,5.037-0.5,9.404-1.553l0.423,1.553
		c-1.188,0.661-3.318,0.816-4.94,0.84C236.859,418.31,234.735,418.155,233.62,417.451L233.62,417.451z M235.396,416.197
		c1.604,0.05,4.514-0.511,6.131-1.062l0.922-0.435l-0.469-1.117l-3.197,1.429C237.77,415.405,236.261,415.796,235.396,416.197
		L235.396,416.197L235.396,416.197z M234.686,415.184L234.686,415.184c0.256-0.422,1.033-1.116,1.439-1.587
		c1.539-1.79,2.342-3.111,3.591-5.104l1.774,4.03L234.686,415.184L234.686,415.184z M243.157,412.805L243.157,412.805
		c5.347-3.205,9.32-8.344,11.625-14.504c2.392-6.354,3.081-12.739,3.254-19.508c0.013-0.495,0.013-1.016,0.032-1.507l0.154-0.971
		c0.008-0.029,0.045-0.057,0.047-0.111c0.008-0.069,0.036-0.091,0.062-0.119l3.018,4.521c0.639,2.088,0.84,4.287,0.723,6.698
		c-0.367,7.681-4.158,15.396-9.27,20.815c-1.805,1.905-7.096,5.988-9.08,6.074L243.157,412.805L243.157,412.805z M264.918,383.192
		c-0.321-1.632-2.059-3.955-3.176-4.665l0.732,1.879c0.89,4.652,0.961,7.279-0.031,11.946c-0.79,3.696-2.277,7.019-3.855,9.849
		c-1.574,2.814-3.769,5.54-6.063,7.686c-3.023,2.819-4.935,3.78-8.329,5.53l0.535,1.59c2.385-0.234,7.382-3.676,9.006-5.07
		c5.107-4.371,9.526-10.33,11.353-16.829C265.967,391.947,266.709,386.064,264.918,383.192L264.918,383.192L264.918,383.192z
		 M242.711,411.763c1.92-0.712,5.691-4.608,7.041-6.452c4.159-5.658,6.346-13.213,6.839-20.381c0.215-3.092,0.308-6.68,0.585-9.632
		c0.093-0.972-0.634-1.801-1.613-0.924c-2.522,2.234-6.968,14.786-8.658,18.608c-1.4,3.186-2.643,6.353-4.112,9.437
		c-0.263,0.565-2.175,4.211-2.144,4.606C240.682,407.432,242.484,411.361,242.711,411.763L242.711,411.763L242.711,411.763z
		 M222.678,371.289L222.678,371.289c0.775,2.28,12.449,26.803,14.262,30.659c0.534,1.125,0.871,1.967,1.375,3.061
		c0.685,1.478,1.123,1.661,0.332,3.05c-1.354,2.382-3.816,5.967-6.158,7.247c-1.025,0.557-2.342,0.669-3.561,1l0.064,0.085
		c0.403,0.452-0.197,0.021,0.556,0.311l0.226,0.071c-0.629,0.818,0.018-0.319-0.878,0.55c0.288,0.068,0.136,0.06,0.509,0.021
		c1.215-0.03,1.915,0.658,3.102,1.042c0.986,0.313,2.614,0.796,3.608,0.914c1.395,0.051,2.903,0.111,4.294-0.022
		c1.193-0.129,2.494-0.589,3.683-0.661l0.706,2.157l0.633,1.428l0.191-0.345c0.317-0.614,0.369-0.556,0.449-1.104l-0.778-2.626
		c6.558-2.917,10.599-5.616,15.171-11.709c4.088-5.479,7.146-11.883,6.524-20.093c-0.812-3.653-1.948-6.346-4.122-8.39
		c-1.143-1.07-1.982-1.894-3.592-2.794c-1.982-1.109-1.438-2.695-3.705-2.116c-3.917,2.016-11.551,26.399-15.504,32.366
		c-0.59-0.602-0.798-1.314-1.199-2.258c-0.325-0.73-0.66-1.415-1.037-2.229c-0.656-1.406-1.393-2.984-2.071-4.445
		c-2.595-5.601-5.827-12.17-8.394-17.832c-0.33-0.729-3.718-8.496-4.23-8.852c-0.396,0.503-0.115-0.012-0.295,0.65
		c-0.018,0.063-0.082,0.4-0.082,0.417C222.736,370.887,222.693,370.785,222.678,371.289z"/>
	<path fill-rule="evenodd" clip-rule="evenodd" fill="#140000" d="M312.798,360.273c0.759,0.85,1.54,1.916,2.46,2.825
		c0.994,0.969,1.697,1.553,2.75,2.417c1.489,1.232,4.213,3.069,6.205,4.148c4.174,2.264,9.641,4.839,15.156,5.623l-15.188-3.229
		c-3.026-1.126-9.639-4.444-11.234-7.295c-1.135-0.932-1.978-3.566-1.274-5.264l0.464-0.658L312.798,360.273L312.798,360.273z
		 M313.273,370.322c-1.836-1.263-3.576-2.377-4.607-4.175c-1.533-2.66-1.9-3.836-1.219-6.324c-0.35,0.797-1.386,1.48-1.021,4.12
		c0.611,4.407,3.433,7.634,6.896,9.957c4.554,3.651,15.624,5.974,21.57,5.5l7.985-1.116c-0.076-0.05-0.022-0.075-0.377-0.117
		l-3.96,0.163C330.041,378.195,319.965,374.842,313.273,370.322L313.273,370.322L313.273,370.322z M313.144,366.882
		c-0.247-0.543-2.138-2.512-2.322-3.539c-0.784-2.562-0.567-3.655,0.13-5.032c-4.253,1.842-3.369,5.332-0.527,8.325
		c0.761,0.796,1.578,1.277,2.523,2.148c0.852,0.395,3.577,2.397,6.928,3.925c5.479,2.503,11.17,4.056,17.385,4.463
		c3.937,0.25,5.918-0.102,9.373-1.197c-3.791,0.201-5.117,0.917-10.069,0.211c-7.625-1.09-15.833-3.255-21.894-8.084
		C314.154,367.683,313.673,367.147,313.144,366.882L313.144,366.882L313.144,366.882z M324.028,326.389L324.028,326.389
		c0.3,0.466,3.556,3.441,4.288,4.17c2.765,2.775,5.584,5.76,8.141,8.711c1.238,1.432,2.547,3.027,3.722,4.537
		c4.433,5.643,10.396,14.052,12.103,21.372c0.294,1.274,0.469,2.475,0.43,3.906c-0.035,1.686-0.021,2.142-1.188,3.01
		c-1.564,1.14-3.838,2.052-6.192,2.279c-9.799,0.924-23.373-5.817-29.716-12.479c-2.458-2.566-2.292-2.877-2.829-5.433l-1.117,0.01
		c-4.838,0.461-7.592,4.61-5.813,9.703c0.866,2.467,1.622,3.488,2.985,5.248c0.926,1.203,3.244,3.174,4.547,3.807
		c0.814,0.992,6.046,2.965,7.543,3.411c3.181,0.938,5.98,1.386,9.312,1.732c4.896,0.513,12.332-0.277,16.851-2.4
		c0.579-0.273,1.17-0.712,1.892-0.917c0.474-0.485,1.076-0.741,1.636-1.253c0.53-0.488,1.106-1.002,1.551-1.548
		c1.011-1.23,1.478-2.497,1.828-4.319c-0.175-6.053-1.728-9.329-4.21-14.078c-4.546-8.69-13.069-18.509-19.998-25.552
		c-0.895-0.911-4.184-3.942-4.607-4.522h-0.141c-0.369,0.442,0.018,0.119-0.447,0.403
		C324.277,326.375,324.619,326.231,324.028,326.389z"/>
	<path fill-rule="evenodd" clip-rule="evenodd" fill="#140000" d="M261.17,323.783l0.619,0.685
		c-0.111,0.645-0.529,0.872-0.619,1.407c-0.16,0.938,0.206,0.86,0.928,1.097c0.043-1.032-0.325-0.12-0.117-1.097
		c0.088-0.393,0.43-0.579,0.594-1.037C262.931,323.898,261.807,323.34,261.17,323.783z"/>
	<path fill-rule="evenodd" clip-rule="evenodd" fill="#140000" d="M259.402,321.857l0.842,1.054l-0.011-0.951
		c1.147-0.498,1.97-1.194,1.41-2.352c-1.029,0.511-0.081,0.567-1.029,1.31C259.982,321.409,259.975,321.233,259.402,321.857z"/>
	<path fill-rule="evenodd" clip-rule="evenodd" fill="#140000" d="M258.652,323.907l-1.536,2.196
		c1.263-0.039-0.152-0.49,1.579-1.459c0.42-0.229,0.725-0.336,0.848-0.737l-0.686-1.013
		C258.588,323.278,258.724,323.182,258.652,323.907z"/>
	<path fill-rule="evenodd" clip-rule="evenodd" fill="#000011" d="M262.531,318.904c-0.143,0.387-0.348,0.456-0.019,0.765
		c0.424,0.406,0.143,0.115,0.634-0.114c0.268-0.522,0.6-0.865,1.104-1.091c0.869,0.497,1.047,0.588,1.484,1.492
		c0.02,0.041,0.04,0.08,0.057,0.119l0.111,0.243c0.007,0.019,0.05,0.142,0.059,0.113c0.006-0.025,0.038,0.074,0.061,0.117
		c-0.427,0.482-0.896,1.111-1.487,1.357c-0.212,0.362-0.523,0.627-0.875,0.96c-0.435,0.412-0.717,0.455-0.467,0.896
		c0.692,0.132,0.479,0.132,0.815-0.199c0.216-0.205,0.459-0.486,0.609-0.668c0.477-0.828,1.785-1.184,2.271-1.93l0.289,0.366
		c0.117,0.248-0.029,0.629-0.037,0.697c-0.137,1.006,0.222,0.117,0.154,1.43c-0.014,0.234,0,0.245-0.032,0.504
		c-0.069,0.442-0.075,0.229-0.12,0.468c-0.07,0.348-0.092,0.034-0.061,0.572l-2.234,0.401l-1.616,0.456l-0.064,0.626
		c1.148-0.235,1.49-0.481,2.913-0.569l-0.467,1.08c-0.464,0.445-0.264,0.101-0.896,0.335c-1.165,0.427-0.579,1.01-0.525,1.908
		c-1.847,1.242-2.448,1.534-5.008,1.511c-0.975-0.019-1.049-0.24-1.439-0.864l0.355-0.381c0.117-0.081,0.094-0.078,0.31-0.179
		c1.411-0.651,0.522-0.687,1.667-1.164c0.147-0.371,0.553-1.033,0.517-1.647c-0.023-0.467,0.036-0.245-0.167-0.507
		c-0.692,1.196-1.072,2.354-2.047,2.318c-0.338,0.521-1.321,0.888-1.872,1.147c-0.753-0.687-1.851-1.086-2.38-2.039
		c-0.018-0.032-0.035-0.076-0.039-0.095c-0.015-0.02-0.027-0.062-0.037-0.087c-0.01-0.017-0.027-0.07-0.037-0.091
		c-0.011-0.02-0.021-0.062-0.036-0.079c-0.288-0.58-0.518-0.53-0.677-1.035c0.881-0.53,0.851-0.612,1.811-0.724
		c0.429-0.095,0.628-0.133,1.076-0.224c1.05-0.215,0.719,0.178,0.766-0.633c-0.999-0.287-1.251-0.067-2.447,0.245l-1.9,0.565
		c-0.567-0.928-0.449-1.539-0.465-3.197c0.992-0.624,0.384-0.38,0.666-0.723l0.963,0.234c0.15,0.041,0.499,0.147,0.645,0.204
		l0.581,0.27c0.536,0.284,0.425,0.331,0.871,0.015c-0.036-0.703-0.157-0.478-0.843-0.783l-0.813-0.292
		c-0.038-0.017-0.083-0.04-0.122-0.053l-0.357-0.145c-0.106-0.04-0.212-0.082-0.308-0.121c-0.041-0.017-0.149-0.059-0.175-0.069
		c-0.052-0.024-0.217-0.092-0.416-0.233c0.536-1.129,0.387-0.723,0.771-1.373c0.308-0.516-0.201-1.215,0.861-1.269
		c1.193-0.073,0.322,0.905,1.432,1.119c0.114-0.243,0.227-0.458,0.218-0.751c-0.001-0.358-0.042-0.135-0.179-0.671
		c1.24-0.297,0.881-0.408,1.654-0.663l0.045,1.75l0.178-0.07c0.322-0.743,0.708-1.994,0.893-2.666
		c2.062,0.186,3.432,0.29,4.52,0.778c0.039,0.02,0.085,0.041,0.117,0.058c0.451,0.239,0.436,0.217,0.61,0.517
		C263.727,317.842,263.436,318.789,262.531,318.904L262.531,318.904z M222.129,370.364L222.129,370.364l0.549,0.925
		c0.016-0.504,0.059-0.402,0.078-0.446c0-0.017,0.064-0.354,0.082-0.417c0.18-0.662-0.102-0.147,0.295-0.65l0.092-0.197
		c-1.347-2.797-2.571-5.845-3.762-8.763c-1.242-3.034-2.405-6.021-3.459-9.218c-1.761-5.342-4.828-16.135-0.455-20.138
		c3.888-3.537,16.449-1.603,22.431-1.013c3.95,0.396,7.863,0.705,11.827,0.867c1.736,0.068,4.73-0.249,6.119,0.276
		c1.057,0.396,1.351,0.247,1.947,1.158c0.715,1.077,0.471,0.82,1.473,1.431c0.277-0.325,0.197,0.053,0.105-0.413l-0.857-1.389
		c3.85-0.302,3.475,0.054,6.875-1.866l2.379,1.739c0.425-0.76,0.088-0.418-1.732-2.33c0.611-0.981,2.841-1.689,3.986-2.443
		c10.03-6.673,5.5-14.915,11.85-19.908c6.981-5.5,22.331,3.622,27.678,7.398c3.339,2.351,9.549,6.987,12.482,9.751l1.656,1.649
		l0.261,0.021c0.591-0.157,0.249-0.014,0.567-0.201c0.465-0.284,0.078,0.039,0.447-0.403c-0.405-0.589-4.01-3.549-4.871-4.281
		c-6.935-5.944-16.246-12.526-24.947-15.452c-7.748-2.614-14.445-1.651-17.309,4.711c-1.645,3.676-1.617,9.375-5.388,13.121
		c-1.899,1.892-1.06,1.537-3.759,1.435c0.262-3.207,0.293-2.039-0.264-5.342l2.276,1.174c-0.052-0.315-0.692-1.246-0.882-1.365
		l-1.854-0.449c-0.712-1.37-1.144-1.725-2.179-2.872c0.316-0.693,1.252-1.271,2.279-1.64c2.159-0.78,0.967,0.145,2.598-1.32
		c-0.923-0.122-3.662,0.842-4.512,1.489l-1.113,0.887l-6.213-1.638c0.4-2.147,1.26-2.448,3.074-3.863
		c-0.225-0.564,0.278-0.491-0.57-0.308c-0.071,0.021-0.516,0.29-0.676,0.392c-0.534,0.346-0.855,0.535-1.275,0.97l-1.368,2.913
		c-0.661,0.246-1.228,0.359-1.843,0.593l-1.742,0.831l-5.736-1.348l0.021,0.506l4.99,1.367c-1.957,2.225-0.934,0.636-2.82,4.024
		c-0.691,0.022-1.246,0.037-1.932,0.162c-0.982,0.19-0.751,0.105-1.272,0.922l2.948-0.354l0.182,5.297
		c-0.744,0.623-2.047,1.534-1.927,2.57c0.667,0.407,0.522-0.059,1.04-0.689l1.195-1.086l0.516,0.739
		c0.756,1.145,0.795,1.13,1.701,2.194c-2.9,0.398-8.383-0.235-11.455-0.487c-3.613-0.282-7.31-0.715-10.968-0.998
		c-3.544-0.276-7.845-0.567-11.354-0.136c-3.54,0.438-5.918,2.414-6.902,5.212c-1.962,5.548,0.776,14.643,2.546,19.658
		c1.491,4.218,3.272,8.687,5.062,12.756C220.896,367.366,221.766,369.125,222.129,370.364z"/>
	<path fill-rule="evenodd" clip-rule="evenodd" fill="#000011" d="M246.331,420.761l-0.261-0.008
		c-0.08,0.548-0.132,0.489-0.449,1.104l-0.191,0.345c1.68,5.167,3.6,10.382,4.154,16.246c0.244,2.506,0.402,7.154-1.352,8.632
		c-2.061,1.728-6.037-1.498-6.945-2.375c-3.205-3.067-6.286-7.526-8.54-11.916c-1.758-3.411-3.431-7.212-4.085-11.12
		c-0.418-2.501,0.002-2.827,0.742-4.324c-0.373,0.038-0.221,0.047-0.509-0.021c0.896-0.869,0.249,0.269,0.878-0.55l-0.226-0.071
		c-0.753-0.289-0.152,0.142-0.556-0.311c-4.609,1.988,1.106,14.018,2.553,16.72c1.336,2.512,2.657,4.833,4.204,6.955
		c0.966,1.312,2.606,3.563,3.81,4.617c0.56,0.481,0.891,1.049,1.452,1.469c1.438,1.11,5.414,3.915,7.918,1.942
		c2.155-1.693,2.192-6.143,1.91-9.315c-0.267-3.092-0.978-6.663-1.831-9.466C248.658,428.182,246.365,421.184,246.331,420.761z"/>
	<path fill-rule="evenodd" clip-rule="evenodd" fill="#F05123" d="M266.987,386.325c0.622,8.21-2.437,14.613-6.524,20.093
		c-4.572,6.093-8.613,8.792-15.171,11.709l0.778,2.626l0.261,0.008c3.318-0.008,9.216-0.691,13.565-0.797
		c4.713-0.113,9.553-0.15,14.154,0.31c16.611,1.696,28.527,6.31,35.877,21.435c3.008,6.202,5.116,14.18,6.597,21.795
		c0.769,3.9,1.358,7.938,2.174,11.868c0.807,3.921,1.273,8.067,2.161,12.015c1.869,8.25,2.123,14.265,5.439,22.942
		c10.883,28.355,38.685,12.462,51.58-2.938c2.166-2.586,4.29-5.495,4.977-9.229c1.832-9.914-3.152-18.251-8.941-25.751
		c-1.66-2.15-3.035-3.756-4.846-5.827l-5.217-5.611c-1.62-1.831-4.254-4.352-6.098-6.296c-4.916-5.21-10.221-10.34-13.668-16.594
		c-3.412-6.187-6.874-12.893-8.547-19.912c-3.688-15.628,2.26-24.804,10.521-36.778c0.545-0.787,1.004-1.425,1.498-2.114
		c0.398-0.569,1.172-1.562,1.426-2.222c-0.722,0.205-1.312,0.644-1.892,0.917c-4.519,2.123-11.954,2.913-16.851,2.4
		c-3.332-0.347-6.132-0.794-9.312-1.732c-1.497-0.446-6.729-2.419-7.543-3.411c-0.017,14.391,0.264,39.046-17.494,36.99
		c-3.152-0.37-8.074-2.229-10.252-3.617c-4.936-3.157-9.676-9.739-12.928-14.424C271.984,393.131,267.637,386.731,266.987,386.325z"
		/>
	<path fill-rule="evenodd" clip-rule="evenodd" fill="#F05123" d="M311.668,356.473l1.117-0.01c0.537,2.556,0.371,2.866,2.829,5.433
		c6.343,6.661,19.917,13.402,29.716,12.479c2.354-0.228,4.628-1.14,6.192-2.279c1.167-0.868,1.153-1.324,1.188-3.01
		c0.039-1.432-0.136-2.632-0.43-3.906c-1.706-7.32-7.67-15.729-12.103-21.372c-1.175-1.51-2.483-3.105-3.722-4.537
		c-2.557-2.951-5.376-5.936-8.141-8.711c-0.732-0.729-3.988-3.704-4.288-4.17l-0.261-0.021c-2.14,0.866-3.155,1.825-4.673,3.073
		c-2.149,1.754-4.876,5.628-5.34,7.887l-1.153,19.009L311.668,356.473z"/>
	<path fill-rule="evenodd" clip-rule="evenodd" fill="#F05123" d="M325.184,325.784c0.424,0.58,3.713,3.611,4.607,4.522
		c6.929,7.043,15.452,16.861,19.998,25.552c2.482,4.749,4.035,8.025,4.21,14.078c0.45-0.309,0.337-0.247,0.669-0.729l1.866-2.771
		c1.97-2.908,5.764-8.4,7.036-11.326c4.383-10.062-0.76-18.942-8.931-24.583C346.809,325.112,334.311,322.206,325.184,325.784z"/>
	<path fill-rule="evenodd" clip-rule="evenodd" fill="#F05123" d="M228.928,416.306c1.219-0.331,2.535-0.443,3.561-1
		c2.342-1.28,4.805-4.865,6.158-7.247c0.791-1.389,0.353-1.572-0.332-3.05c-0.504-1.094-0.841-1.936-1.375-3.061
		c-1.812-3.856-13.486-28.379-14.262-30.659l-0.549-0.925c-0.436,0.462-1.752,1.306-2.441,1.938
		c-6.51,5.898-8.736,14.694-6.339,23.269c1.315,4.695,3.401,8.597,6.015,11.994c1.342,1.743,2.971,3.43,4.395,4.728
		C225.031,413.457,228.761,416.107,228.928,416.306z"/>
	<path fill-rule="evenodd" clip-rule="evenodd" fill="#F05123" d="M223.225,369.578l-0.092,0.197c0.513,0.355,3.9,8.123,4.23,8.852
		c2.566,5.662,5.799,12.231,8.394,17.832c0.679,1.461,1.415,3.039,2.071,4.445c0.377,0.814,0.712,1.499,1.037,2.229
		c0.401,0.943,0.609,1.656,1.199,2.258c3.953-5.967,11.587-30.351,15.504-32.366c-0.439-0.723-0.891-0.885-1.451-1.344
		c-3.895-3.243-7.938-5.461-13.208-6.299C231.938,363.943,224.363,369.282,223.225,369.578z"/>
	<path fill-rule="evenodd" clip-rule="evenodd" fill="#F05123" d="M242.711,411.763c1.92-0.712,5.691-4.608,7.041-6.452
		c4.159-5.658,6.346-13.213,6.839-20.381c0.215-3.092,0.308-6.68,0.585-9.632c0.093-0.972-0.634-1.801-1.613-0.924
		c-2.522,2.234-6.968,14.786-8.658,18.608c-1.4,3.186-2.643,6.353-4.112,9.437c-0.263,0.565-2.175,4.211-2.144,4.606
		C240.682,407.432,242.484,411.361,242.711,411.763z"/>
	<path fill-rule="evenodd" clip-rule="evenodd" fill="#F05123" d="M243.157,412.805l0.565,1.389c1.984-0.086,7.275-4.169,9.08-6.074
		c5.111-5.419,8.902-13.135,9.27-20.815c0.117-2.411-0.084-4.61-0.723-6.698l-3.018-4.521c-0.026,0.028-0.055,0.05-0.062,0.119
		c-0.002,0.055-0.039,0.082-0.047,0.111l-0.154,0.971c-0.02,0.491-0.02,1.012-0.032,1.507c-0.173,6.769-0.862,13.154-3.254,19.508
		C252.478,404.461,248.504,409.6,243.157,412.805z"/>
	<path fill-rule="evenodd" clip-rule="evenodd" fill="#F05123" d="M264.918,383.192c-0.553-0.251-1.726-2.315-2.443-2.786
		c0.89,4.652,0.961,7.279-0.031,11.946c-0.79,3.696-2.277,7.019-3.855,9.849c-1.574,2.814-3.769,5.54-6.063,7.686
		c-3.023,2.819-4.935,3.78-8.329,5.53l0.535,1.59c2.385-0.234,7.382-3.676,9.006-5.07c5.107-4.371,9.526-10.33,11.353-16.829
		C265.967,391.947,266.709,386.064,264.918,383.192z"/>
	<path fill-rule="evenodd" clip-rule="evenodd" fill="#F05123" d="M261.17,325.875c0.09-0.535,0.508-0.763,0.619-1.407l-0.619-0.685
		c0.637-0.443,1.761,0.115,1.404,1.055c-0.164,0.458-0.506,0.645-0.594,1.037c-0.208,0.977,0.16,0.064,0.117,1.097
		C261.376,326.735,261.01,326.812,261.17,325.875L261.17,325.875z M258.652,323.907L258.652,323.907
		c0.071-0.726-0.064-0.629,0.205-1.013l0.686,1.013c-0.123,0.401-0.428,0.508-0.848,0.737c-1.731,0.969-0.316,1.42-1.579,1.459
		L258.652,323.907L258.652,323.907z M259.402,321.857l0.842,1.054l-0.011-0.951c1.147-0.498,1.97-1.194,1.41-2.352
		c-1.029,0.511-0.081,0.567-1.029,1.31C259.982,321.409,259.975,321.233,259.402,321.857L259.402,321.857L259.402,321.857z
		 M257.812,318.457L257.812,318.457l-0.178,0.07l-0.637,0.017l-0.832,0.917c-0.403,0.409-0.866,0.978-1.287,1.272l0.145,0.564
		c0.686,0.306,0.807,0.08,0.843,0.783c-0.446,0.316-0.335,0.27-0.871-0.015c-0.844,0.169-0.272-0.243-0.522,0.522
		c-0.016,0.039-0.025,0.593-0.025,0.673c0,0.478,0.018,0.963,0.059,1.451c1.196-0.312,1.448-0.532,2.447-0.245
		c-0.047,0.811,0.284,0.418-0.766,0.633c-0.448,0.091-0.647,0.129-1.076,0.224c-0.211,0.592,0.035,0.647,0.656,1.318
		c1.318,1.439,1.359,1.205,2.611,1.684c0.975,0.036,1.354-1.122,2.047-2.318c0.203,0.262,0.144,0.04,0.167,0.507
		c0.036,0.614-0.369,1.276-0.517,1.647l0.139,0.531c0.965-0.601,0.847-0.028,1.792-0.611c1.103-0.68,0.524-0.174,1.618-1.23
		l-0.458-0.366l0.064-0.626l1.616-0.456c-0.208-0.726-0.029-0.226,0.133-1.103c0.305-1.551-0.292-1.374-0.363-1.406
		c-0.15,0.182-0.394,0.463-0.609,0.668c-0.337,0.331-0.123,0.331-0.815,0.199c-0.25-0.44,0.032-0.483,0.467-0.896
		c0.352-0.333,0.663-0.598,0.875-0.96l0.159-0.635c-0.807-1.007-0.349-0.47-0.576-0.978c-0.23-0.51-0.521-0.625-0.971-0.739
		c-0.491,0.229-0.21,0.521-0.634,0.114c-0.329-0.309-0.124-0.378,0.019-0.765c-0.899-0.655-1.386-1.044-2.371-0.142
		c-1.623,1.492-0.447,1.801-1.479,2.305c-0.404-0.952-0.604-0.985-0.077-1.921c0.373-0.65,0.729-0.729,0.929-1.336l-1.248,0.477
		C257.78,318.481,258.718,318.224,257.812,318.457z"/>
	<path fill-rule="evenodd" clip-rule="evenodd" fill="#F05123" d="M313.322,373.9c4.554,3.651,15.624,5.974,21.57,5.5l7.985-1.116
		c-0.076-0.05-0.022-0.075-0.377-0.117l-3.96,0.163c-8.5-0.135-18.576-3.488-25.268-8.008L313.322,373.9z"/>
	<path fill-rule="evenodd" clip-rule="evenodd" fill="#F05123" d="M312.947,364.764c1.596,2.851,8.208,6.169,11.234,7.295
		l15.188,3.229c-5.516-0.784-10.982-3.359-15.156-5.623c-1.992-1.079-4.716-2.916-6.205-4.148c-1.053-0.864-1.756-1.448-2.75-2.417
		c-0.92-0.909-1.701-1.976-2.46-2.825L312.947,364.764z"/>
	<path fill-rule="evenodd" clip-rule="evenodd" fill="#F05123" d="M312.947,368.784c0.852,0.395,3.577,2.397,6.928,3.925
		c5.479,2.503,11.17,4.056,17.385,4.463c3.937,0.25,5.918-0.102,9.373-1.197c-3.791,0.201-5.117,0.917-10.069,0.211
		c-7.625-1.09-15.833-3.255-21.894-8.084c-0.516-0.419-0.997-0.954-1.526-1.22c0,0.31,0.058,0.762,0.05,1.024
		c-0.005,0.251,0.008,0.229-0.045,0.477C313.034,368.876,313.227,368.463,312.947,368.784z"/>
	<path fill-rule="evenodd" clip-rule="evenodd" fill="#F05123" d="M234.686,415.184l6.805-2.661l-1.774-4.03
		c-1.249,1.993-2.052,3.314-3.591,5.104C235.719,414.067,234.941,414.762,234.686,415.184z"/>
	<path fill-rule="evenodd" clip-rule="evenodd" fill="#F05123" d="M233.62,417.451c1.115,0.704,3.239,0.858,4.887,0.84
		c1.622-0.023,3.753-0.179,4.94-0.84l-0.423-1.553C238.657,416.951,238.289,417.208,233.62,417.451z"/>
	<path fill-rule="evenodd" clip-rule="evenodd" fill="#F05123" d="M236.114,419.3c1.085,0.913,6.687,1.506,8.683,1.474l-0.706-2.157
		c-1.188,0.072-2.489,0.532-3.683,0.661C239.018,419.411,237.509,419.351,236.114,419.3z"/>
	<path fill-rule="evenodd" clip-rule="evenodd" fill="#F05123" d="M235.396,416.197c1.604,0.05,4.514-0.511,6.131-1.062l0.922-0.435
		l-0.469-1.117l-3.197,1.429C237.77,415.405,236.261,415.796,235.396,416.197z"/>
	<path fill-rule="evenodd" clip-rule="evenodd" fill="#6A2600" d="M257.812,318.457c0.905-0.233-0.032,0.024,0.473-0.17l1.248-0.477
		c-0.2,0.607-0.556,0.686-0.929,1.336c-0.526,0.936-0.327,0.969,0.077,1.921c1.031-0.504-0.145-0.812,1.479-2.305
		c0.985-0.902,1.472-0.514,2.371,0.142c0.904-0.115,1.195-1.062,1.421-1.761c-0.175-0.3-0.159-0.277-0.61-0.517
		c-0.032-0.017-0.078-0.038-0.117-0.058c-1.088-0.488-2.457-0.593-4.52-0.778C258.521,316.463,258.135,317.714,257.812,318.457z"/>
</g>
</svg>
